<svg xmlns="http://www.w3.org/2000/svg" viewBox="0 -960 960 960" fill="#e3e3e3"><path d="M136.5-431.5Q117-451 117-480t19.5-48.5Q156-548 185-548t48 19.5q19 19.5 19 48.5t-19 48.5Q214-412 185-412t-48.5-19.5Zm590.5 0Q708-451 708-480t19-48.5q19-19.5 48-19.5t48.5 19.5Q843-509 843-480t-19.5 48.5Q804-412 775-412t-48-19.5ZM432-173v-193L289-223q-14 14-33 14t-33-14q-14-14-14-33.5t14-33.5l190-190-191-191q-14-14-14-33t14-33q14-14 33.5-14t33.5 14l143 143v-193q0-29 19.5-46t43.5-17q11 0 23 4.5t22 14.5l134 134q9 9 14 21t5 24q0 12-5 24t-14 21L547-480l127 127q9 9 14 21t5 24q0 12-5 24t-14 21L540-129q-10 10-22 14.5t-23 4.5q-24 0-43.5-17T432-173Zm96-421 57-58-57-56v114Zm0 342 57-56-57-58v114Z"/></svg>