<svg xmlns="http://www.w3.org/2000/svg" viewBox="0 -960 960 960" fill="#e3e3e3"><path d="M481-35q-38 0-65-26.5T389-126h183q0 38-26.5 64.5T481-35ZM189-166q-26 0-44.5-18.5T126-229q0-26 18.5-44.5T189-292h5v-246q0-96 55.5-173T397-811v-20q0-35 24-59t59-24q26 0 47 14.5t30 37.5q-21 29-32 62.5T514-731q0 94 66 158.5T739-508q7 0 13.5-.5T766-510v218h5q26 0 44.5 18.5T834-229q0 26-18.5 44.5T771-166H189Zm446.5-463.5Q594-671 594-731t41.5-101.5Q677-874 737-874t101.5 41.5Q880-791 880-731t-41.5 101.5Q797-588 737-588t-101.5-41.5Z"/></svg>