<svg xmlns="http://www.w3.org/2000/svg" viewBox="0 -960 960 960" fill="#e3e3e3"><path d="M480-46q-91 0-170-34t-137.5-92.5Q114-231 80-310T46-480q0-75 23-141.5T134-743q16-21 39.5-21t41.5 15q18 15 23.5 40.5T224-653q-25 37-38.5 80.5T172-480q0 130 89 219t219 89q130 0 219-89t89-219q0-49-13.5-92.5T736-653q-20-30-14.5-55.5T745-749q18-15 41.5-15t39.5 21q42 55 65 121.5T914-480q0 91-34 170t-92.5 137.5Q729-114 650-80T480-46Zm-44.5-389.5Q417-454 417-480v-371q0-26 18.5-44.5T480-914q26 0 44.5 18.5T543-851v371q0 26-18.5 44.5T480-417q-26 0-44.5-18.5Z"/></svg>