<svg xmlns="http://www.w3.org/2000/svg" viewBox="0 -960 960 960" fill="#e3e3e3"><path d="M409-149q-29-29-29-71t29-71q29-29 71-29t71 29q29 29 29 71t-29 71q-29 29-71 29t-71-29Zm207-389q64 22 118 60 24 17 25 47.5T738-378q-22 22-53 24t-57-14q-33-20-69.5-30.5T480-409q-41 0-77 10t-69 30q-27 16-58.5 14.5T222-378q-22-22-21-52t25-47q54-38 118-60.5T480-560q72 0 136 22Zm92-223q107 39 194 109 25 20 27 50.5T908-548q-22 22-53 23t-57-18q-68-51-147.5-78.5T480-649q-91 0-170.5 27.5T162-543q-26 19-56.5 18T53-548q-23-23-21.5-53.5T58-652q87-70 194-109t228-39q121 0 228 39Z"/></svg>